<svg width="315" height="158" viewBox="0 0 315 158" fill="none" xmlns="http://www.w3.org/2000/svg">
<path d="M291.293 42.2929C290.902 42.6834 290.902 43.3166 291.293 43.7071C291.683 44.0976 292.317 44.0976 292.707 43.7071L291.293 42.2929ZM292.707 43.7071L314.707 21.7071L313.293 20.2929L291.293 42.2929L292.707 43.7071Z" fill="url(#paint0_linear_105_45)"/>
<path d="M242.646 72.6464C242.451 72.8417 242.451 73.1583 242.646 73.3536C242.842 73.5488 243.158 73.5488 243.354 73.3536L242.646 72.6464ZM243.354 73.3536L252.354 64.3536L251.646 63.6464L242.646 72.6464L243.354 73.3536Z" fill="url(#paint1_linear_105_45)"/>
<path d="M286.646 97.6464C286.451 97.8417 286.451 98.1583 286.646 98.3536C286.842 98.5488 287.158 98.5488 287.354 98.3536L286.646 97.6464ZM287.354 98.3536L296.354 89.3536L295.646 88.6464L286.646 97.6464L287.354 98.3536Z" fill="url(#paint2_linear_105_45)"/>
<path d="M92.6464 38.6464C92.4512 38.8417 92.4512 39.1583 92.6464 39.3536C92.8417 39.5488 93.1583 39.5488 93.3536 39.3536L92.6464 38.6464ZM93.3536 39.3536L102.354 30.3536L101.646 29.6464L92.6464 38.6464L93.3536 39.3536Z" fill="url(#paint3_linear_105_45)"/>
<path d="M42.6464 70.6464C42.4512 70.8417 42.4512 71.1583 42.6464 71.3536C42.8417 71.5488 43.1583 71.5488 43.3536 71.3536L42.6464 70.6464ZM43.3536 71.3536L56.3536 58.3536L55.6464 57.6464L42.6464 70.6464L43.3536 71.3536Z" fill="url(#paint4_linear_105_45)"/>
<path d="M112.646 117.646C112.451 117.842 112.451 118.158 112.646 118.354C112.842 118.549 113.158 118.549 113.354 118.354L112.646 117.646ZM113.354 118.354L122.354 109.354L121.646 108.646L112.646 117.646L113.354 118.354Z" fill="url(#paint5_linear_105_45)"/>
<path d="M175.646 72.6464C175.451 72.8417 175.451 73.1583 175.646 73.3536C175.842 73.5488 176.158 73.5488 176.354 73.3536L175.646 72.6464ZM176.354 73.3536L185.354 64.3536L184.646 63.6464L175.646 72.6464L176.354 73.3536Z" fill="url(#paint6_linear_105_45)"/>
<path d="M246.646 138.646C246.451 138.842 246.451 139.158 246.646 139.354C246.842 139.549 247.158 139.549 247.354 139.354L246.646 138.646ZM247.354 139.354L256.354 130.354L255.646 129.646L246.646 138.646L247.354 139.354Z" fill="url(#paint7_linear_105_45)"/>
<path d="M145.646 12.6464C145.451 12.8417 145.451 13.1583 145.646 13.3536C145.842 13.5488 146.158 13.5488 146.354 13.3536L145.646 12.6464ZM146.354 13.3536L155.354 4.35355L154.646 3.64645L145.646 12.6464L146.354 13.3536Z" fill="url(#paint8_linear_105_45)"/>
<path d="M66.6464 9.64645C66.4512 9.84171 66.4512 10.1583 66.6464 10.3536C66.8417 10.5488 67.1583 10.5488 67.3536 10.3536L66.6464 9.64645ZM67.3536 10.3536L76.3536 1.35355L75.6464 0.646447L66.6464 9.64645L67.3536 10.3536Z" fill="url(#paint9_linear_105_45)"/>
<path d="M212.688 31.6096C212.472 31.7821 212.437 32.0967 212.61 32.3123C212.782 32.528 213.097 32.5629 213.312 32.3904L212.688 31.6096ZM213.312 32.3904L218.312 28.3904L217.688 27.6096L212.688 31.6096L213.312 32.3904Z" fill="url(#paint10_linear_105_45)"/>
<path d="M204.688 156.61C204.472 156.782 204.437 157.097 204.61 157.312C204.782 157.528 205.097 157.563 205.312 157.39L204.688 156.61ZM205.312 157.39L210.312 153.39L209.688 152.61L204.688 156.61L205.312 157.39Z" fill="url(#paint11_linear_105_45)"/>
<path d="M154.688 137.61C154.472 137.782 154.437 138.097 154.61 138.312C154.782 138.528 155.097 138.563 155.312 138.39L154.688 137.61ZM155.312 138.39L160.312 134.39L159.688 133.61L154.688 137.61L155.312 138.39Z" fill="url(#paint12_linear_105_45)"/>
<path d="M190.293 119.293C189.902 119.683 189.902 120.317 190.293 120.707C190.683 121.098 191.317 121.098 191.707 120.707L190.293 119.293ZM191.707 120.707L213.707 98.7071L212.293 97.2929L190.293 119.293L191.707 120.707Z" fill="url(#paint13_linear_105_45)"/>
<path d="M97.3727 72.2212C96.9426 72.5677 96.8748 73.1972 97.2212 73.6273C97.5677 74.0574 98.1972 74.1252 98.6273 73.7788L97.3727 72.2212ZM98.6273 73.7788L134.627 44.7788L133.373 43.2212L97.3727 72.2212L98.6273 73.7788Z" fill="url(#paint14_linear_105_45)"/>
<path d="M0.37267 53.2212C-0.0574234 53.5677 -0.125218 54.1972 0.221246 54.6273C0.567711 55.0574 1.19724 55.1252 1.62733 54.7788L0.37267 53.2212ZM1.62733 54.7788L37.6273 25.7788L36.3727 24.2212L0.37267 53.2212L1.62733 54.7788Z" fill="url(#paint15_linear_105_45)"/>
<defs>
<linearGradient id="paint0_linear_105_45" x1="292.354" y1="43.3536" x2="314.354" y2="21.3536" gradientUnits="userSpaceOnUse">
<stop stop-color="white"/>
<stop offset="1"/>
</linearGradient>
<linearGradient id="paint1_linear_105_45" x1="243.354" y1="73.3536" x2="252.354" y2="64.3536" gradientUnits="userSpaceOnUse">
<stop stop-color="white"/>
<stop offset="1"/>
</linearGradient>
<linearGradient id="paint2_linear_105_45" x1="287.354" y1="98.3536" x2="296.354" y2="89.3536" gradientUnits="userSpaceOnUse">
<stop stop-color="white"/>
<stop offset="1"/>
</linearGradient>
<linearGradient id="paint3_linear_105_45" x1="93.3536" y1="39.3536" x2="102.354" y2="30.3536" gradientUnits="userSpaceOnUse">
<stop stop-color="white"/>
<stop offset="1"/>
</linearGradient>
<linearGradient id="paint4_linear_105_45" x1="43.3536" y1="71.3536" x2="56.3536" y2="58.3536" gradientUnits="userSpaceOnUse">
<stop stop-color="white"/>
<stop offset="1"/>
</linearGradient>
<linearGradient id="paint5_linear_105_45" x1="113.354" y1="118.354" x2="122.354" y2="109.354" gradientUnits="userSpaceOnUse">
<stop stop-color="white"/>
<stop offset="1"/>
</linearGradient>
<linearGradient id="paint6_linear_105_45" x1="176.354" y1="73.3536" x2="185.354" y2="64.3536" gradientUnits="userSpaceOnUse">
<stop stop-color="white"/>
<stop offset="1"/>
</linearGradient>
<linearGradient id="paint7_linear_105_45" x1="247.354" y1="139.354" x2="256.354" y2="130.354" gradientUnits="userSpaceOnUse">
<stop stop-color="white"/>
<stop offset="1"/>
</linearGradient>
<linearGradient id="paint8_linear_105_45" x1="146.354" y1="13.3536" x2="155.354" y2="4.35355" gradientUnits="userSpaceOnUse">
<stop stop-color="white"/>
<stop offset="1"/>
</linearGradient>
<linearGradient id="paint9_linear_105_45" x1="67.3536" y1="10.3536" x2="76.3536" y2="1.35355" gradientUnits="userSpaceOnUse">
<stop stop-color="white"/>
<stop offset="1"/>
</linearGradient>
<linearGradient id="paint10_linear_105_45" x1="213.312" y1="32.3904" x2="218.312" y2="28.3904" gradientUnits="userSpaceOnUse">
<stop stop-color="white" stop-opacity="0.9"/>
<stop offset="1"/>
</linearGradient>
<linearGradient id="paint11_linear_105_45" x1="205.312" y1="157.39" x2="210.312" y2="153.39" gradientUnits="userSpaceOnUse">
<stop stop-color="white" stop-opacity="0.9"/>
<stop offset="1"/>
</linearGradient>
<linearGradient id="paint12_linear_105_45" x1="155.312" y1="138.39" x2="160.312" y2="134.39" gradientUnits="userSpaceOnUse">
<stop stop-color="white" stop-opacity="0.9"/>
<stop offset="1"/>
</linearGradient>
<linearGradient id="paint13_linear_105_45" x1="191.354" y1="120.354" x2="213.354" y2="98.3536" gradientUnits="userSpaceOnUse">
<stop stop-color="white"/>
<stop offset="1"/>
</linearGradient>
<linearGradient id="paint14_linear_105_45" x1="98.3137" y1="73.3894" x2="134.314" y2="44.3894" gradientUnits="userSpaceOnUse">
<stop stop-color="white"/>
<stop offset="1"/>
</linearGradient>
<linearGradient id="paint15_linear_105_45" x1="1.31366" y1="54.3894" x2="37.3137" y2="25.3894" gradientUnits="userSpaceOnUse">
<stop stop-color="white"/>
<stop offset="1"/>
</linearGradient>
</defs>
</svg>
