<svg width="181" height="40" viewBox="0 0 181 40" fill="none" xmlns="http://www.w3.org/2000/svg">
<path d="M11.268 32.144C9.444 32.144 7.812 31.736 6.372 30.92C4.956 30.104 3.828 28.976 2.988 27.536C2.172 26.096 1.764 24.452 1.764 22.604C1.764 20.732 2.172 19.076 2.988 17.636C3.828 16.196 4.956 15.08 6.372 14.288C7.812 13.472 9.444 13.064 11.268 13.064C12.78 13.064 14.148 13.352 15.372 13.928C16.62 14.504 17.628 15.368 18.396 16.52L17.064 17.492C16.392 16.532 15.552 15.824 14.544 15.368C13.536 14.912 12.444 14.684 11.268 14.684C9.804 14.684 8.484 15.02 7.308 15.692C6.156 16.34 5.244 17.264 4.572 18.464C3.924 19.64 3.6 21.02 3.6 22.604C3.6 24.188 3.924 25.58 4.572 26.78C5.244 27.956 6.156 28.88 7.308 29.552C8.484 30.2 9.804 30.524 11.268 30.524C12.444 30.524 13.536 30.296 14.544 29.84C15.552 29.384 16.392 28.676 17.064 27.716L18.396 28.688C17.628 29.84 16.62 30.704 15.372 31.28C14.148 31.856 12.78 32.144 11.268 32.144ZM30.8123 32.144C29.0123 32.144 27.4043 31.736 25.9883 30.92C24.5963 30.104 23.4803 28.976 22.6403 27.536C21.8243 26.096 21.4163 24.452 21.4163 22.604C21.4163 20.732 21.8243 19.088 22.6403 17.672C23.4803 16.232 24.5963 15.104 25.9883 14.288C27.4043 13.472 29.0123 13.064 30.8123 13.064C32.6123 13.064 34.2203 13.472 35.6363 14.288C37.0523 15.104 38.1683 16.232 38.9843 17.672C39.8003 19.088 40.2083 20.732 40.2083 22.604C40.2083 24.452 39.8003 26.096 38.9843 27.536C38.1683 28.976 37.0523 30.104 35.6363 30.92C34.2203 31.736 32.6123 32.144 30.8123 32.144ZM30.8123 30.524C32.2523 30.524 33.5483 30.2 34.7003 29.552C35.8523 28.88 36.7523 27.944 37.4003 26.744C38.0483 25.544 38.3723 24.164 38.3723 22.604C38.3723 21.02 38.0483 19.64 37.4003 18.464C36.7523 17.264 35.8523 16.34 34.7003 15.692C33.5483 15.02 32.2523 14.684 30.8123 14.684C29.3723 14.684 28.0763 15.02 26.9243 15.692C25.7963 16.34 24.8963 17.264 24.2243 18.464C23.5763 19.64 23.2523 21.02 23.2523 22.604C23.2523 24.164 23.5763 25.544 24.2243 26.744C24.8963 27.944 25.7963 28.88 26.9243 29.552C28.0763 30.2 29.3723 30.524 30.8123 30.524ZM50.5446 32.144C48.9846 32.144 47.5206 31.916 46.1526 31.46C44.8086 31.004 43.7646 30.428 43.0206 29.732L43.8486 28.292C44.5686 28.916 45.5286 29.456 46.7286 29.912C47.9286 30.344 49.2246 30.56 50.6166 30.56C52.5846 30.56 54.0006 30.236 54.8646 29.588C55.7286 28.94 56.1606 28.088 56.1606 27.032C56.1606 26.264 55.9326 25.664 55.4766 25.232C55.0446 24.776 54.4566 24.428 53.7126 24.188C52.9686 23.948 52.1526 23.756 51.2646 23.612C50.3766 23.444 49.4886 23.264 48.6006 23.072C47.7126 22.88 46.8966 22.604 46.1526 22.244C45.4086 21.884 44.8086 21.392 44.3526 20.768C43.9206 20.12 43.7046 19.268 43.7046 18.212C43.7046 17.252 43.9686 16.388 44.4966 15.62C45.0246 14.852 45.8166 14.24 46.8726 13.784C47.9286 13.304 49.2486 13.064 50.8326 13.064C52.0086 13.064 53.1846 13.232 54.3606 13.568C55.5606 13.904 56.5326 14.348 57.2766 14.9L56.4486 16.34C55.6566 15.74 54.7686 15.308 53.7846 15.044C52.8006 14.78 51.8046 14.648 50.7966 14.648C48.9726 14.648 47.6286 14.984 46.7646 15.656C45.9246 16.328 45.5046 17.168 45.5046 18.176C45.5046 18.968 45.7206 19.604 46.1526 20.084C46.6086 20.54 47.2086 20.9 47.9526 21.164C48.6966 21.404 49.5126 21.608 50.4006 21.776C51.2886 21.92 52.1766 22.088 53.0646 22.28C53.9526 22.472 54.7686 22.748 55.5126 23.108C56.2566 23.444 56.8446 23.924 57.2766 24.548C57.7326 25.148 57.9606 25.964 57.9606 26.996C57.9606 28.028 57.6726 28.928 57.0966 29.696C56.5446 30.464 55.7166 31.064 54.6126 31.496C53.5086 31.928 52.1526 32.144 50.5446 32.144ZM86.384 13.064C87.896 13.064 89.204 13.364 90.308 13.964C91.436 14.54 92.312 15.428 92.936 16.628C93.56 17.804 93.872 19.268 93.872 21.02V32H92.072V21.164C92.072 19.052 91.556 17.444 90.524 16.34C89.492 15.236 88.052 14.684 86.204 14.684C84.788 14.684 83.564 14.984 82.532 15.584C81.5 16.184 80.708 17.024 80.156 18.104C79.604 19.184 79.328 20.48 79.328 21.992V32H77.528V21.164C77.528 19.052 77.012 17.444 75.98 16.34C74.948 15.236 73.508 14.684 71.66 14.684C70.244 14.684 69.02 14.984 67.988 15.584C66.956 16.184 66.164 17.024 65.612 18.104C65.06 19.184 64.784 20.48 64.784 21.992V32H62.984V13.208H64.712V18.392L64.46 17.816C65.012 16.352 65.936 15.2 67.232 14.36C68.528 13.496 70.088 13.064 71.912 13.064C73.784 13.064 75.356 13.544 76.628 14.504C77.924 15.44 78.74 16.844 79.076 18.716L78.464 18.464C78.968 16.856 79.916 15.56 81.308 14.576C82.7 13.568 84.392 13.064 86.384 13.064ZM101.304 32V13.208H103.104V32H101.304ZM102.204 8.636C101.796 8.636 101.448 8.492 101.16 8.204C100.872 7.916 100.728 7.58 100.728 7.196C100.728 6.788 100.872 6.44 101.16 6.152C101.448 5.864 101.796 5.72 102.204 5.72C102.636 5.72 102.984 5.864 103.248 6.152C103.536 6.416 103.68 6.752 103.68 7.16C103.68 7.568 103.536 7.916 103.248 8.204C102.984 8.492 102.636 8.636 102.204 8.636ZM118.143 32.144C116.319 32.144 114.687 31.736 113.247 30.92C111.831 30.104 110.703 28.976 109.863 27.536C109.047 26.096 108.639 24.452 108.639 22.604C108.639 20.732 109.047 19.076 109.863 17.636C110.703 16.196 111.831 15.08 113.247 14.288C114.687 13.472 116.319 13.064 118.143 13.064C119.655 13.064 121.023 13.352 122.247 13.928C123.495 14.504 124.503 15.368 125.271 16.52L123.939 17.492C123.267 16.532 122.427 15.824 121.419 15.368C120.411 14.912 119.319 14.684 118.143 14.684C116.679 14.684 115.359 15.02 114.183 15.692C113.031 16.34 112.119 17.264 111.447 18.464C110.799 19.64 110.475 21.02 110.475 22.604C110.475 24.188 110.799 25.58 111.447 26.78C112.119 27.956 113.031 28.88 114.183 29.552C115.359 30.2 116.679 30.524 118.143 30.524C119.319 30.524 120.411 30.296 121.419 29.84C122.427 29.384 123.267 28.676 123.939 27.716L125.271 28.688C124.503 29.84 123.495 30.704 122.247 31.28C121.023 31.856 119.655 32.144 118.143 32.144Z" fill="white"/>
<path d="M155.714 17.5245L156.256 17.3957L156.431 16.868L160.936 3.35527L164.861 16.8314L165.025 17.3965L165.599 17.5269L177.462 20.2218L165.479 24.5774L165.025 24.7426L164.872 25.2014L160.937 37.0243L156.417 25.1612L156.258 24.7423L155.839 24.5828L144.389 20.221L155.714 17.5245Z" stroke="white" stroke-width="2"/>
</svg>
