<?xml version="1.0" encoding="utf-8" ?>
<svg xmlns="http://www.w3.org/2000/svg" xmlns:xlink="http://www.w3.org/1999/xlink" width="128" height="128">
	<path fill="white" transform="scale(0.125 0.125)" d="M435.579 781.208C435.922 781.319 436.453 781.478 436.811 781.629C438.255 782.235 438.797 783.098 439.345 784.502C439.254 786.552 438.383 787.917 437.399 789.679C437.238 789.607 437.077 789.536 436.918 789.462C435.489 788.796 433.928 788.077 433.554 786.361C433.143 784.475 434.603 782.66 435.579 781.208Z"/>
	<path fill="white" transform="scale(0.125 0.125)" d="M679.168 532.45C680.291 532.449 681.651 532.424 682.739 532.698C684.027 533.022 684.442 533.568 685.065 534.666C685.135 536.583 684.307 537.891 683.444 539.558C682.23 539.588 680.99 539.597 679.841 539.134C678.82 538.724 677.963 537.645 677.813 536.561C677.598 535.004 678.385 533.709 679.168 532.45Z"/>
	<path fill="white" transform="scale(0.125 0.125)" d="M293.654 271.361C295.129 271.601 296.659 271.896 297.831 272.912C298.795 273.749 299.339 274.652 299.302 275.962C299.257 277.558 298.142 278.583 297.126 279.669C295.706 279.873 294.436 279.854 293.174 279.061C292.046 278.352 291.484 277.344 291.413 276.02C291.302 273.952 292.37 272.78 293.654 271.361Z"/>
	<path fill="white" transform="scale(0.125 0.125)" d="M748.379 408.387C749.964 408.508 751.945 408.599 753.165 409.782C754.06 410.651 754.541 411.416 754.538 412.696C754.535 414.309 753.364 415.425 752.353 416.526C750.798 416.536 749.188 416.588 747.888 415.576C747.178 415.023 746.767 414.42 746.601 413.551C746.183 411.354 747.186 410.077 748.379 408.387Z"/>
	<path fill="white" transform="scale(0.125 0.125)" d="M693.597 275.586C695.086 275.523 697.2 275.763 698.454 276.654C699.553 277.436 700.156 278.301 700.205 279.685C700.289 282.02 698.731 283.535 697.333 285.2C695.506 285.404 693.827 285.374 692.34 284.109C691.296 283.22 690.874 281.983 690.873 280.649C690.871 278.255 691.976 277.15 693.597 275.586Z"/>
	<path fill="white" transform="scale(0.125 0.125)" d="M212.3 491.52C214.405 491.493 216.445 491.618 218.113 493.062C219.222 494.022 219.884 495.256 219.784 496.747C219.644 498.845 218.381 500.29 216.97 501.705C214.981 501.84 212.639 501.856 211.046 500.424C210.02 499.501 209.465 498.478 209.445 497.074C209.411 494.661 210.808 493.212 212.3 491.52Z"/>
	<path fill="white" transform="scale(0.125 0.125)" d="M596.637 567.607C597.267 567.58 597.899 567.555 598.53 567.571C600.399 567.619 602.33 568.257 603.574 569.719C604.635 570.965 604.906 572.309 604.657 573.898C604.32 576.049 602.645 577.562 601.029 578.823C600.355 578.937 600.259 578.974 599.498 578.992C597.753 579.032 595.684 578.341 594.547 576.973C593.602 575.836 593.349 574.443 593.436 573.013C593.595 570.389 594.816 569.323 596.637 567.607Z"/>
	<path fill="white" transform="scale(0.125 0.125)" d="M537.033 191.811C537.927 194.567 538.129 198.052 539.686 200.495C541.696 203.651 546.675 203.903 550.011 204.601Q544.712 205.289 539.45 206.22C538.826 209.425 537.756 212.559 537.069 215.767C534.915 213.012 534.634 209.018 534.186 205.659L523.764 204.578C526.996 203.75 530.336 203.243 533.619 202.647C534.795 199.048 535.875 195.416 537.033 191.811Z"/>
	<path fill="white" transform="scale(0.125 0.125)" d="M721.525 674.317C723.523 676.376 723.741 683.177 724.065 686.084L734.373 688.862C730.846 689.85 727.213 690.517 723.628 691.269C723.322 695.097 722.535 698.816 722.388 702.677C720.262 700.42 720.096 693.778 719.834 690.689Q714.39 689.843 708.961 688.904C712.29 688.293 716.283 687.888 718.819 685.446C721.723 682.649 721.517 678.052 721.525 674.317Z"/>
	<path fill="white" transform="scale(0.125 0.125)" d="M500.349 335.835C502.716 336.109 505.608 336.513 507.159 338.578C508.051 339.766 508.364 340.971 508.216 342.429C507.909 345.433 505.759 347.178 503.597 349.008C502.848 349.058 502.158 349.066 501.417 348.915C499.362 348.497 497.278 347.626 496.193 345.72C495.37 344.275 495.281 342.559 495.693 340.972C496.391 338.29 498.095 337.231 500.349 335.835Z"/>
	<path fill="white" transform="scale(0.125 0.125)" d="M385.768 214.585C386.006 214.574 386.245 214.56 386.483 214.552C389.287 214.457 391.695 214.868 393.745 216.955C394.946 218.178 395.593 219.692 395.485 221.417C395.317 224.108 393.549 225.821 391.589 227.43C390.957 227.568 390.976 227.58 390.226 227.651C387.994 227.865 385.812 227.401 384.163 225.81C382.935 224.625 382.317 222.993 382.321 221.296C382.328 218.257 383.7 216.625 385.768 214.585Z"/>
	<path fill="white" transform="scale(0.125 0.125)" d="M579.149 745.806C581.303 747.706 581.305 756.46 581.554 759.48C586.469 759.885 591.358 760.779 596.228 761.543C591.307 762.205 586.409 762.828 581.458 763.226Q580.828 770.056 580.08 776.873L579.38 777.204C577.56 773.848 577.865 767.354 577.661 763.584C572.944 762.773 568.236 762.136 563.486 761.568C568.138 760.785 572.755 760.203 577.447 759.725C578.386 755.215 578.638 750.394 579.149 745.806Z"/>
	<path fill="white" transform="scale(0.125 0.125)" d="M231.568 613.824C233.747 615.768 234.487 625.857 234.992 628.837Q241.236 629.809 247.508 630.576Q241.017 631.771 234.59 633.27C233.373 637.954 232.672 642.86 232.27 647.68C230.786 642.909 230.591 637.993 229.85 633.081C225.828 632.141 221.812 631.417 217.733 630.765C221.477 630.167 225.799 629.715 228.641 626.953C231.956 623.732 231.557 618.085 231.568 613.824Z"/>
	<path fill="white" transform="scale(0.125 0.125)" d="M303.943 657.995C303.592 662.233 272.482 692.011 274.438 717.447C274.815 722.347 276.776 726.576 280.618 729.71C296.015 742.272 336.005 736.179 354.965 734.473C355.107 736.911 355.346 739.318 355.628 741.742Q350.613 742.279 345.573 742.484C336.855 744.755 321.867 744.988 312.621 745.331C299.958 745.801 282.259 745.781 272.468 736.308C267.878 731.867 265.764 726.032 265.604 719.721C265.145 701.568 277.953 684.478 289.838 672C294.41 667.199 299.412 662.831 303.943 657.995Z"/>
	<path fill="white" transform="scale(0.125 0.125)" d="M839.66 458.471C839.943 459.929 838.448 461.722 837.657 462.894C831.531 471.962 824.216 480.523 817.06 488.786Q809.098 497.903 800.71 506.629Q792.322 515.355 783.527 523.671Q774.732 531.986 765.549 539.872Q756.367 547.758 746.818 555.196C721.801 575.005 694.944 592.659 667.889 609.537Q649.651 621.043 630.993 631.854Q612.334 642.666 593.281 652.766Q574.229 662.867 554.809 672.242Q535.39 681.618 515.631 690.255C471.332 709.126 425.441 725.014 378.152 734.326C377.429 732.186 378.818 728.744 379.388 726.619C385.334 725.182 391.361 724.126 397.297 722.605Q434.385 712.943 470.357 699.717C562.723 665.642 656.254 613.276 735.196 554.504Q752.433 541.921 768.885 528.328Q785.338 514.736 800.948 500.183C814.806 487.042 827.338 473.033 839.66 458.471Z"/>
	<path fill="white" transform="scale(0.125 0.125)" d="M679.218 250.759C705.78 250.388 742.414 249.112 765.795 263.254C772.237 267.151 777.099 272.738 778.78 280.234C781.451 292.142 775.467 305.316 769.376 315.221C767.265 318.654 749.127 343.457 746.073 344.186C746.373 343.07 756.696 328.34 758.474 325.352C762.64 318.355 766.166 311.194 768.974 303.552C771.752 295.993 773.866 286.958 770.121 279.351C766.72 272.44 759.648 268.755 752.684 266.335C726.994 257.408 694.569 258.525 667.766 259.925C580.017 264.51 497.728 284.761 415.403 314.813Q370.01 331.166 326.286 351.566C279.614 372.687 235.366 399.631 193.407 428.883L192.711 428.716C192.461 428.871 192.357 429.187 192.186 429.425L193.001 428.955L192.923 428.196C199.422 423.841 205.49 418.045 211.782 413.296Q231.464 398.616 252.343 385.696Q261.074 380.308 269.922 375.114Q278.769 369.921 287.729 364.924Q296.69 359.927 305.758 355.129Q314.827 350.331 323.999 345.735Q333.171 341.139 342.443 336.746Q351.715 332.354 361.081 328.167Q370.447 323.981 379.904 320.002Q389.361 316.024 398.903 312.255Q408.445 308.487 418.068 304.93Q427.691 301.373 437.391 298.03Q447.09 294.686 456.861 291.558Q466.632 288.43 476.47 285.518Q486.307 282.607 496.207 279.913Q506.107 277.22 516.063 274.746Q526.02 272.272 536.029 270.018Q546.038 267.765 556.094 265.733C596.781 257.48 637.68 251.831 679.218 250.759Z"/>
	<path fill="white" transform="scale(0.125 0.125)" d="M716.357 324.703C719.158 324.527 721.931 324.379 724.727 324.737C728.639 325.237 732.616 326.688 734.995 330C737.683 333.741 737.771 338.843 736.974 343.202C729.998 381.35 643.695 455.703 611.906 481.681C587.482 501.64 561.148 521.493 535.195 539.363C534.317 543.536 533.077 547.672 531.726 551.717C522.27 580.03 500.429 603.72 473.777 616.898C441.531 632.841 415.904 630.238 383.119 619.063C381.83 638.348 378.744 657.536 375.846 676.631Q371.759 703.408 368.099 730.247C366.752 739.914 365.041 749.611 364.209 759.335L351.968 647.885C350.958 640.685 350.018 633.444 348.333 626.367C312.065 613.326 276.504 598.188 240.397 584.687C273.617 582.375 306.602 579.61 339.924 578.741Q333.22 568.751 328.311 557.768Q327.765 556.535 327.25 555.288Q326.735 554.042 326.251 552.783Q325.767 551.525 325.314 550.255Q324.861 548.984 324.439 547.703Q324.018 546.423 323.628 545.132Q323.238 543.841 322.88 542.541Q322.522 541.241 322.196 539.932Q321.87 538.623 321.576 537.307Q321.283 535.991 321.022 534.668Q320.761 533.345 320.532 532.016Q320.304 530.687 320.108 529.353Q319.912 528.018 319.75 526.68Q319.587 525.341 319.457 523.999Q319.328 522.656 319.231 521.311Q319.134 519.966 319.071 518.619Q319.007 517.272 318.977 515.924Q318.947 514.576 318.95 513.227Q318.953 511.879 318.989 510.531Q319.025 509.183 319.094 507.836Q319.164 506.489 319.266 505.144Q319.368 503.8 319.504 502.458Q319.64 501.116 319.808 499.778Q319.977 498.44 320.178 497.107Q320.38 495.774 320.614 494.446Q320.848 493.117 321.115 491.796Q321.382 490.474 321.681 489.159Q321.98 487.844 322.312 486.537Q322.643 485.23 323.007 483.931Q323.371 482.632 323.766 481.343Q324.162 480.054 324.589 478.775Q325.016 477.496 325.475 476.228Q325.933 474.96 326.423 473.703Q326.944 472.401 327.497 471.112Q328.05 469.823 328.635 468.548Q329.22 467.273 329.836 466.013Q330.453 464.753 331.1 463.509Q331.748 462.264 332.426 461.036Q333.104 459.809 333.813 458.598Q334.521 457.387 335.259 456.195Q335.998 455.002 336.766 453.828Q337.533 452.654 338.33 451.5Q339.127 450.345 339.952 449.211Q340.777 448.077 341.63 446.963Q342.483 445.85 343.363 444.758Q344.244 443.666 345.151 442.596Q346.058 441.526 346.992 440.48Q347.925 439.433 348.885 438.409Q349.844 437.386 350.828 436.387Q351.813 435.388 352.821 434.413Q353.83 433.439 354.863 432.49Q355.896 431.54 356.952 430.617Q358.008 429.694 359.087 428.797Q360.165 427.901 361.266 427.031Q362.367 426.162 363.488 425.32Q364.61 424.478 365.753 423.664Q366.895 422.85 368.057 422.065Q369.22 421.279 370.401 420.523Q371.582 419.767 372.782 419.041Q373.982 418.314 375.2 417.618Q376.417 416.921 377.652 416.255Q378.886 415.589 380.137 414.954Q381.387 414.319 382.653 413.715Q383.919 413.111 385.2 412.539Q386.481 411.966 387.775 411.426C417.735 398.682 447.993 399.532 477.88 411.519C504.449 398.485 531.795 386.829 559.077 375.377Q606.06 355.142 654.737 339.415C674.957 333.016 695.216 327.065 716.357 324.703ZM716.322 329.198C685.286 331.954 651.397 344.415 622.203 355.058Q580.977 370.104 540.78 387.715C521.921 396.199 503.403 405.703 484.347 413.696C494.576 419.62 501.976 426.294 509.688 435.161C480.251 416.898 443.458 405.461 409.014 413.522C381.907 419.866 356.933 436.846 342.303 460.74C328.742 482.888 323.72 510.493 329.927 535.85Q330.616 538.632 331.438 541.377Q332.261 544.123 333.214 546.826Q334.166 549.529 335.248 552.182Q336.329 554.837 337.537 557.436Q338.745 560.035 340.076 562.573Q341.407 565.111 342.858 567.582Q344.309 570.054 345.877 572.452Q347.446 574.851 349.127 577.172C357.225 567.181 365.375 557.093 374.491 547.999C384.92 537.596 396.226 527.817 407.465 518.307C447.659 484.299 490.976 455.325 536.499 428.988C556.328 417.515 576.166 406.385 596.938 396.67C614.591 388.413 640.043 376.442 659.425 374.434C662.838 374.081 667.898 373.493 670.688 375.91C671.85 376.917 672.311 378.358 672.313 379.851C672.329 390.08 656.846 404.341 649.731 410.996C606.831 451.124 536.135 490.45 482.544 516.655C482.091 531.729 476.28 545.081 465.257 555.485Q464.13 556.551 462.951 557.559Q461.773 558.568 460.545 559.516Q459.318 560.465 458.045 561.351Q456.772 562.237 455.456 563.058Q454.14 563.88 452.785 564.634Q451.43 565.389 450.039 566.075Q448.648 566.762 447.224 567.378Q445.801 567.994 444.348 568.538Q442.896 569.082 441.418 569.554Q439.94 570.025 438.44 570.422Q436.941 570.819 435.423 571.14Q433.906 571.462 432.374 571.708Q430.843 571.953 429.301 572.122Q427.759 572.291 426.21 572.383Q424.662 572.475 423.111 572.489Q421.56 572.504 420.01 572.441C414.37 572.243 408.863 571.304 403.382 570.005C398.549 568.668 393.41 567.294 388.944 564.978Q420.05 544.483 453.105 527.308C467.953 519.456 483.079 512.139 497.936 504.309Q540.708 482.052 581.524 456.383C606.51 440.622 631.288 423.278 652.355 402.456C656.998 397.867 666.25 389.239 667.81 383.037C668.019 382.206 667.924 381.498 667.805 380.663C666.987 379.446 666.5 378.932 664.954 378.639C658.927 377.496 650.265 380.454 644.511 382.241C611.383 392.53 579.858 409.594 549.773 426.578Q522.33 441.947 495.681 458.654Q468.401 476.343 442.381 495.838C421.583 511.215 400.909 527.797 382.263 545.738C371.705 555.897 361.086 569.738 349.645 578.361C358.231 587.398 373.042 585.774 384.02 590.322C383.856 596.578 383.467 602.91 383.926 609.157C407.392 620.034 433.376 623.494 458.1 614.37C485.952 604.093 510.438 583.184 522.909 555.962C527.221 546.55 529.98 536.409 533.602 526.705C533.364 529.333 533.085 531.957 533.042 534.598C542.777 528.885 551.944 521.928 561.083 515.306C602.635 485.205 719.382 392.227 732.114 344.849C733.115 341.123 733.755 336.746 731.586 333.296C730.165 331.035 727.655 329.734 725.091 329.236C722.473 328.728 718.97 328.721 716.322 329.198ZM302.978 592.578C318.264 598.572 352.266 598.23 362.548 607.406C367.212 617.543 366.741 633.729 367.228 644.891C367.389 648.582 367.037 653.187 368.515 656.614C368.953 656.048 368.836 656.376 368.827 655.62C369.59 645.91 373.933 607.387 368.696 601.213C363.576 595.179 331.643 594.436 322.755 593.751C316.783 593.29 310.727 592.294 304.73 592.477C304.145 592.495 303.561 592.533 302.978 592.578Z"/>
	<path fill="white" transform="scale(0.125 0.125)" d="M456.089 593.841C457.346 594.635 457.525 594.575 457.953 595.971C457.253 599.078 454.879 600.804 452.614 602.838C452.343 602.656 452.056 602.496 451.802 602.292C450.726 601.429 450.759 601.107 450.636 599.815C451.702 597.348 454.125 595.615 456.089 593.841Z"/>
	<path fill="white" transform="scale(0.125 0.125)" d="M412.295 427.196C412.785 427.446 413.69 427.819 414.12 428.211C414.649 428.693 415.044 429.181 415.065 429.907C415.132 432.228 412.554 434.547 411.127 436.198C410.492 436.547 409.79 436.552 409.079 436.652L408.575 435.853C408.755 432.531 410.421 429.838 412.295 427.196Z"/>
	<path fill="white" transform="scale(0.125 0.125)" d="M430.214 419.71C431.205 420.269 431.823 420.576 432.394 421.583C432.273 425.051 427.869 428.735 425.572 431.195L424.604 431.313C423.64 430.415 423.619 430.338 423.356 429.043C424.341 425.302 427.647 422.448 430.214 419.71Z"/>
	<path fill="white" transform="scale(0.125 0.125)" d="M349.121 547.149C350.304 547.37 351.232 547.546 352.184 548.363C355.282 551.023 357.337 556.257 357.532 560.275C356.154 560.438 355.873 560.605 354.727 559.699C351.578 557.212 349.361 551.058 349.121 547.149Z"/>
	<path fill="white" transform="scale(0.125 0.125)" d="M440.322 594.804C441.568 595.71 441.738 595.669 442.105 597.139C440.758 601.743 435.397 604.681 431.596 607.151C430.366 606.624 430.247 606.675 429.631 605.509C430.829 601.704 437.27 597.402 440.322 594.804Z"/>
	<path fill="white" transform="scale(0.125 0.125)" d="M342.967 492.098L346.322 493.408C344.884 499.202 344.71 505.573 343.883 511.506C342.956 511.272 342.164 511.004 341.586 510.178C338.869 506.295 341.999 496.534 342.967 492.098Z"/>
	<path fill="white" transform="scale(0.125 0.125)" d="M503.528 553.202C503.92 553.41 504.699 553.8 505.029 554.067C505.931 554.797 506.096 555.794 506.04 556.891C505.651 564.541 496.817 575.665 491.348 580.651C490.164 580.36 489.606 580.236 488.807 579.287C488.65 575.621 494.075 571.414 496.05 568.415C499.099 563.785 500.931 558.128 503.528 553.202Z"/>
	<path fill="white" transform="scale(0.125 0.125)" d="M396.79 430.973C397.286 430.977 397.979 430.968 398.454 431.047C399.667 431.248 400.041 431.331 400.757 432.302C399.796 436.214 388.915 439.126 385.689 441.241C371.957 450.241 362.662 462.348 355.107 476.749C354.031 477.134 353.358 476.917 352.397 476.477C352.019 475.142 352.216 474.321 352.682 473.012C359.456 453.993 379.318 439.28 396.79 430.973Z"/>
	<path fill="white" transform="scale(0.125 0.125)" d="M526.57 399.073C527.908 398.981 529.371 398.995 530.689 399.277C532.912 399.751 534.807 401.28 536.037 403.151C538.622 407.083 538.516 412.891 537.38 417.28C536.141 422.066 534.036 425.105 529.758 427.531Q528.242 427.665 526.733 427.461C524.403 427.138 522.049 425.511 520.702 423.608C518.098 419.93 517.957 414.339 518.895 410.096C520.006 405.068 522.246 401.775 526.57 399.073Z"/>
	<path fill="white" transform="scale(0.125 0.125)" d="M416.86 463.653C426.931 461.992 438.76 464.523 447.845 468.886C423.921 486.439 401.349 507.557 383.786 531.557C380.402 536.406 377.778 541.631 374.615 546.609L373.572 546.413C369.743 542.271 368.472 533.656 367.569 528.21C365.118 513.438 368.735 499.262 377.474 487.169C387.05 473.918 400.872 466.175 416.86 463.653Z"/>
</svg>
